<svg width="32" height="32" viewBox="0 0 32 32" fill="none" xmlns="http://www.w3.org/2000/svg">
<path fill-rule="evenodd" clip-rule="evenodd" d="M10.201 6.65611C10.201 6.65611 9.82075 4 15.9138 4C22.2805 4 21.7885 7.20196 21.7885 7.20196V12.4938C21.7885 15.6943 18.5485 15.6415 18.5485 15.6415H12.7825C9.32425 15.6415 9.43375 19.0621 9.43375 19.0621V21.9301H7.40275C7.40275 21.9301 4 22.1487 4 15.9695C4 9.7887 7.89775 10.2335 7.89775 10.2335H16.0225V9.40797H10.2085L10.201 6.65611ZM13.7538 6.90189C13.7538 6.32061 13.2858 5.85015 12.7075 5.85015C12.1293 5.85015 11.6613 6.32061 11.6613 6.90189C11.6611 7.04006 11.688 7.17692 11.7405 7.30461C11.793 7.4323 11.8701 7.54832 11.9673 7.64602C12.0644 7.74373 12.1799 7.82119 12.3069 7.87397C12.4339 7.92676 12.5701 7.95383 12.7075 7.95363C13.2858 7.95363 13.7538 7.48318 13.7538 6.90189ZM21.799 25.3439C21.799 25.3439 22.1793 28 16.0863 28C9.7195 28 10.2115 24.798 10.2115 24.798V19.5062C10.2115 16.3057 13.4515 16.3585 13.4515 16.3585H19.2175C22.6758 16.3585 22.5663 12.9379 22.5663 12.9379V10.0707H24.5973C24.5973 10.0707 28 9.85131 28 16.0313C28 22.2113 24.1015 21.7665 24.1015 21.7665H15.9775V22.592H21.7915L21.799 25.3439ZM18.8919 26.0702C19.0189 26.123 19.155 26.15 19.2925 26.1498C19.8707 26.1498 20.3387 25.6801 20.3387 25.0981C20.3387 24.5168 19.8707 24.0471 19.2925 24.0471C18.7142 24.0471 18.2462 24.5176 18.2462 25.0981C18.2461 25.2363 18.273 25.3731 18.3255 25.5008C18.378 25.6285 18.4551 25.7445 18.5522 25.8422C18.6494 25.9399 18.7649 26.0174 18.8919 26.0702Z" fill="#757F99"/>
</svg>
